<svg width="36" height="36" viewBox="0 0 36 36" fill="none" xmlns="http://www.w3.org/2000/svg">
<path d="M21 4.9035C21 3.852 20.148 3 19.0965 3H16.905C15.852 3 15 3.852 15 4.9035C15 5.7705 14.406 6.5145 13.5975 6.8325C13.47 6.8835 13.3425 6.9375 13.218 6.9915C12.4215 7.3365 11.475 7.2315 10.86 6.618C10.5031 6.26132 10.0191 6.06096 9.5145 6.06096C9.00989 6.06096 8.52594 6.26132 8.169 6.618L6.618 8.169C6.26132 8.52594 6.06096 9.00989 6.06096 9.5145C6.06096 10.0191 6.26132 10.5031 6.618 10.86C7.233 11.475 7.338 12.42 6.99 13.218C6.93532 13.3436 6.88281 13.4701 6.8325 13.5975C6.5145 14.406 5.7705 15 4.9035 15C3.852 15 3 15.852 3 16.9035V19.0965C3 20.148 3.852 21 4.9035 21C5.7705 21 6.5145 21.594 6.8325 22.4025C6.8835 22.53 6.9375 22.6575 6.99 22.782C7.3365 23.5785 7.2315 24.525 6.618 25.14C6.26132 25.4969 6.06096 25.9809 6.06096 26.4855C6.06096 26.9901 6.26132 27.4741 6.618 27.831L8.169 29.382C8.52594 29.7387 9.00989 29.939 9.5145 29.939C10.0191 29.939 10.5031 29.7387 10.86 29.382C11.475 28.767 12.42 28.662 13.218 29.0085C13.3425 29.064 13.47 29.1165 13.5975 29.1675C14.406 29.4855 15 30.2295 15 31.0965C15 32.148 15.852 33 16.9035 33H19.0965C20.148 33 21 32.148 21 31.0965C21 30.2295 21.594 29.4855 22.4025 29.166C22.53 29.1165 22.6575 29.064 22.782 29.01C23.5785 28.662 24.525 28.7685 25.1385 29.382C25.3153 29.5588 25.5251 29.6991 25.7561 29.7948C25.9871 29.8905 26.2347 29.9398 26.4847 29.9398C26.7348 29.9398 26.9824 29.8905 27.2134 29.7948C27.4444 29.6991 27.6542 29.5588 27.831 29.382L29.382 27.831C29.7387 27.4741 29.939 26.9901 29.939 26.4855C29.939 25.9809 29.7387 25.4969 29.382 25.14C28.767 24.525 28.662 23.58 29.0085 22.782C29.064 22.6575 29.1165 22.53 29.1675 22.4025C29.4855 21.594 30.2295 21 31.0965 21C32.148 21 33 20.148 33 19.0965V16.905C33 15.8535 32.148 15.0015 31.0965 15.0015C30.2295 15.0015 29.4855 14.4075 29.166 13.599C29.1157 13.4716 29.0632 13.3451 29.0085 13.2195C28.6635 12.423 28.7685 11.4765 29.382 10.8615C29.7387 10.5046 29.939 10.0206 29.939 9.516C29.939 9.01139 29.7387 8.52744 29.382 8.1705L27.831 6.6195C27.4741 6.26282 26.9901 6.06246 26.4855 6.06246C25.9809 6.06246 25.4969 6.26282 25.14 6.6195C24.525 7.2345 23.58 7.3395 22.782 6.993C22.6564 6.93781 22.5299 6.8848 22.4025 6.834C21.594 6.5145 21 5.769 21 4.9035Z" stroke="black" stroke-width="2"/>
<path d="M24 18C24 19.5913 23.3679 21.1174 22.2426 22.2426C21.1174 23.3679 19.5913 24 18 24C16.4087 24 14.8826 23.3679 13.7574 22.2426C12.6321 21.1174 12 19.5913 12 18C12 16.4087 12.6321 14.8826 13.7574 13.7574C14.8826 12.6321 16.4087 12 18 12C19.5913 12 21.1174 12.6321 22.2426 13.7574C23.3679 14.8826 24 16.4087 24 18Z" stroke="black" stroke-width="2"/>
</svg>
